<svg xmlns="http://www.w3.org/2000/svg" version="1.1" xmlns:xlink="http://www.w3.org/1999/xlink" xmlns:svgjs="http://svgjs.dev/svgjs" width="2000" height="358" viewBox="0 0 2000 358"><g transform="matrix(1,0,0,1,-1.2121212121212466,-1.360249217919062)"><svg viewBox="0 0 396 71" data-background-color="#ffffff" preserveAspectRatio="xMidYMid meet" height="358" width="2000" xmlns="http://www.w3.org/2000/svg" xmlns:xlink="http://www.w3.org/1999/xlink"><g id="tight-bounds" transform="matrix(1,0,0,1,0.2400000000000091,0.26977009629121085)"><svg viewBox="0 0 395.52 70.4604598074176" height="70.4604598074176" width="395.52"><g><svg viewBox="0 0 657.8673454559705 117.1966920841245" height="70.4604598074176" width="395.52"><g transform="matrix(1,0,0,1,262.3473454559706,20.65296943459134)"><svg viewBox="0 0 395.52 75.89075321494182" height="75.89075321494182" width="395.52"><g id="textblocktransform"><svg viewBox="0 0 395.52 75.89075321494182" height="75.89075321494182" width="395.52" id="textblock"><g><svg viewBox="0 0 395.52 75.89075321494182" height="75.89075321494182" width="395.52"><g transform="matrix(1,0,0,1,0,0)"><svg width="395.52" viewBox="4.65 -37 245.32999999999998 47" height="75.89075321494182" data-palette-color="#3478ff"><g class="wordmark-text-0" data-fill-palette-color="primary" id="text-0"><path d="M4.65 0L4.65-34.9 19-34.9Q23.35-34.9 25.83-32.45 28.3-30 28.3-25.9L28.3-25.9Q28.3-23.95 27.75-22.6 27.2-21.25 26.35-20.38 25.5-19.5 24.5-19.07 23.5-18.65 22.65-18.5L22.65-18.5 22.65-18.2Q23.6-18.15 24.78-17.7 25.95-17.25 27-16.28 28.05-15.3 28.78-13.78 29.5-12.25 29.5-10.1L29.5-10.1Q29.5-7.95 28.83-6.1 28.15-4.25 26.95-2.9 25.75-1.55 24.1-0.78 22.45 0 20.5 0L20.5 0 4.65 0ZM8.85-16.2L8.85-3.7 19.2-3.7Q21.9-3.7 23.45-5.08 25-6.45 25-9.1L25-9.1 25-10.8Q25-13.45 23.45-14.83 21.9-16.2 19.2-16.2L19.2-16.2 8.85-16.2ZM8.85-31.2L8.85-19.8 18.5-19.8Q21-19.8 22.4-21.05 23.8-22.3 23.8-24.65L23.8-24.65 23.8-26.35Q23.8-28.7 22.4-29.95 21-31.2 18.5-31.2L18.5-31.2 8.85-31.2ZM46.65 0.6L46.65 0.6Q44.05 0.6 41.9-0.35 39.75-1.3 38.22-3.08 36.7-4.85 35.85-7.33 35-9.8 35-12.9L35-12.9Q35-15.95 35.85-18.45 36.7-20.95 38.22-22.73 39.75-24.5 41.9-25.45 44.05-26.4 46.65-26.4L46.65-26.4Q49.25-26.4 51.37-25.45 53.5-24.5 55.05-22.73 56.6-20.95 57.45-18.45 58.3-15.95 58.3-12.9L58.3-12.9Q58.3-9.8 57.45-7.33 56.6-4.85 55.05-3.08 53.5-1.3 51.37-0.35 49.25 0.6 46.65 0.6ZM46.65-2.95L46.65-2.95Q49.9-2.95 51.95-4.95 54-6.95 54-11.05L54-11.05 54-14.75Q54-18.85 51.95-20.85 49.9-22.85 46.65-22.85L46.65-22.85Q43.4-22.85 41.35-20.85 39.3-18.85 39.3-14.75L39.3-14.75 39.3-11.05Q39.3-6.95 41.35-4.95 43.4-2.95 46.65-2.95ZM74.65 0.6L74.65 0.6Q72.05 0.6 69.9-0.35 67.75-1.3 66.22-3.08 64.7-4.85 63.85-7.33 63-9.8 63-12.9L63-12.9Q63-15.95 63.85-18.45 64.7-20.95 66.22-22.73 67.75-24.5 69.9-25.45 72.05-26.4 74.65-26.4L74.65-26.4Q77.25-26.4 79.37-25.45 81.5-24.5 83.05-22.73 84.59-20.95 85.45-18.45 86.3-15.95 86.3-12.9L86.3-12.9Q86.3-9.8 85.45-7.33 84.59-4.85 83.05-3.08 81.5-1.3 79.37-0.35 77.25 0.6 74.65 0.6ZM74.65-2.95L74.65-2.95Q77.9-2.95 79.95-4.95 82-6.95 82-11.05L82-11.05 82-14.75Q82-18.85 79.95-20.85 77.9-22.85 74.65-22.85L74.65-22.85Q71.4-22.85 69.34-20.85 67.3-18.85 67.3-14.75L67.3-14.75 67.3-11.05Q67.3-6.95 69.34-4.95 71.4-2.95 74.65-2.95ZM92.89 0L92.89-37 96.89-37 96.89-13.55 97.09-13.55 101.04-17.95 108.34-25.8 113.19-25.8 103.64-15.6 114.14 0 109.29 0 100.74-13.15 96.89-9.2 96.89 0 92.89 0ZM129.44 0.6L129.44 0.6Q125.19 0.6 122.19-1.03 119.19-2.65 117.09-5.5L117.09-5.5 120.19-8.1Q122.04-5.65 124.29-4.38 126.54-3.1 129.59-3.1L129.59-3.1Q133.34-3.1 135.31-4.9 137.29-6.7 137.29-9.7L137.29-9.7Q137.29-12.2 135.79-13.55 134.29-14.9 130.84-15.7L130.84-15.7 127.99-16.35Q123.19-17.45 120.67-19.68 118.14-21.9 118.14-25.95L118.14-25.95Q118.14-28.25 118.99-30.05 119.84-31.85 121.37-33.05 122.89-34.25 125.02-34.88 127.14-35.5 129.69-35.5L129.69-35.5Q133.64-35.5 136.47-34.05 139.29-32.6 141.24-29.8L141.24-29.8 138.09-27.5Q136.64-29.5 134.59-30.65 132.54-31.8 129.49-31.8L129.49-31.8Q126.14-31.8 124.22-30.38 122.29-28.95 122.29-26.1L122.29-26.1Q122.29-23.6 123.92-22.33 125.54-21.05 128.84-20.3L128.84-20.3 131.69-19.65Q136.84-18.5 139.14-16.15 141.44-13.8 141.44-9.9L141.44-9.9Q141.44-7.5 140.62-5.55 139.79-3.6 138.24-2.25 136.69-0.9 134.47-0.15 132.24 0.6 129.44 0.6ZM148.29 10L148.29-25.8 152.29-25.8 152.29-21.6 152.49-21.6Q153.49-24.05 155.41-25.23 157.34-26.4 160.04-26.4L160.04-26.4Q162.44-26.4 164.39-25.45 166.34-24.5 167.71-22.75 169.09-21 169.81-18.5 170.54-16 170.54-12.9L170.54-12.9Q170.54-9.8 169.81-7.3 169.09-4.8 167.71-3.05 166.34-1.3 164.39-0.35 162.44 0.6 160.04 0.6L160.04 0.6Q154.79 0.6 152.49-4.2L152.49-4.2 152.29-4.2 152.29 10 148.29 10ZM158.94-3L158.94-3Q162.34-3 164.29-5.13 166.24-7.25 166.24-10.7L166.24-10.7 166.24-15.1Q166.24-18.55 164.29-20.68 162.34-22.8 158.94-22.8L158.94-22.8Q157.59-22.8 156.36-22.43 155.14-22.05 154.24-21.4 153.34-20.75 152.81-19.83 152.29-18.9 152.29-17.85L152.29-17.85 152.29-8.25Q152.29-7 152.81-6.03 153.34-5.05 154.24-4.38 155.14-3.7 156.36-3.35 157.59-3 158.94-3ZM198.29 0L196.04 0Q193.79 0 192.81-1.2 191.84-2.4 191.59-4.2L191.59-4.2 191.34-4.2Q190.49-1.8 188.54-0.6 186.59 0.6 183.89 0.6L183.89 0.6Q179.79 0.6 177.51-1.5 175.24-3.6 175.24-7.2L175.24-7.2Q175.24-10.85 177.91-12.8 180.59-14.75 186.24-14.75L186.24-14.75 191.34-14.75 191.34-17.3Q191.34-20.05 189.84-21.5 188.34-22.95 185.24-22.95L185.24-22.95Q182.89-22.95 181.31-21.9 179.74-20.85 178.69-19.1L178.69-19.1 176.29-21.35Q177.34-23.45 179.64-24.93 181.94-26.4 185.44-26.4L185.44-26.4Q190.14-26.4 192.74-24.1 195.34-21.8 195.34-17.7L195.34-17.7 195.34-3.5 198.29-3.5 198.29 0ZM184.54-2.8L184.54-2.8Q186.04-2.8 187.29-3.15 188.54-3.5 189.44-4.15 190.34-4.8 190.84-5.65 191.34-6.5 191.34-7.5L191.34-7.5 191.34-11.75 186.04-11.75Q182.59-11.75 181.01-10.75 179.44-9.75 179.44-7.85L179.44-7.85 179.44-6.8Q179.44-4.9 180.81-3.85 182.19-2.8 184.54-2.8ZM213.58 0.6L213.58 0.6Q210.88 0.6 208.73-0.35 206.58-1.3 205.11-3.05 203.63-4.8 202.86-7.3 202.08-9.8 202.08-12.9L202.08-12.9Q202.08-16 202.86-18.5 203.63-21 205.11-22.75 206.58-24.5 208.73-25.45 210.88-26.4 213.58-26.4L213.58-26.4Q217.43-26.4 219.76-24.73 222.08-23.05 223.23-20.35L223.23-20.35 219.88-18.65Q219.18-20.65 217.58-21.75 215.98-22.85 213.58-22.85L213.58-22.85Q211.78-22.85 210.43-22.28 209.08-21.7 208.18-20.68 207.28-19.65 206.83-18.23 206.38-16.8 206.38-15.1L206.38-15.1 206.38-10.7Q206.38-7.3 208.21-5.13 210.03-2.95 213.58-2.95L213.58-2.95Q218.43-2.95 220.58-7.45L220.58-7.45 223.48-5.5Q222.23-2.7 219.76-1.05 217.28 0.6 213.58 0.6ZM238.83 0.6L238.83 0.6Q236.18 0.6 234.06-0.35 231.93-1.3 230.41-3.08 228.88-4.85 228.06-7.33 227.23-9.8 227.23-12.9L227.23-12.9Q227.23-15.95 228.06-18.45 228.88-20.95 230.41-22.73 231.93-24.5 234.06-25.45 236.18-26.4 238.83-26.4L238.83-26.4Q241.43-26.4 243.48-25.45 245.53-24.5 246.98-22.83 248.43-21.15 249.21-18.85 249.98-16.55 249.98-13.8L249.98-13.8 249.98-11.9 231.43-11.9 231.43-10.7Q231.43-9.05 231.96-7.63 232.48-6.2 233.46-5.15 234.43-4.1 235.86-3.5 237.28-2.9 239.08-2.9L239.08-2.9Q241.53-2.9 243.36-4.05 245.18-5.2 246.18-7.35L246.18-7.35 249.03-5.3Q247.78-2.65 245.13-1.03 242.48 0.6 238.83 0.6ZM238.83-23.05L238.83-23.05Q237.18-23.05 235.83-22.48 234.48-21.9 233.51-20.85 232.53-19.8 231.98-18.38 231.43-16.95 231.43-15.25L231.43-15.25 231.43-14.9 245.68-14.9 245.68-15.45Q245.68-18.9 243.81-20.98 241.93-23.05 238.83-23.05Z" fill="#ffffff" data-fill-palette-color="primary"></path></g></svg></g></svg></g></svg></g></svg></g><g><svg viewBox="0 0 244.43135999999998 117.1966920841245" height="117.1966920841245" width="244.43135999999998"><g><svg xmlns="http://www.w3.org/2000/svg" xmlns:xlink="http://www.w3.org/1999/xlink" xmlns:a="http://ns.adobe.com/AdobeSVGViewerExtensions/3.0/" version="1.1" x="0" y="0" viewBox="0 0 97.427 46.713" enable-background="new -1.286 -24.917 100 100" xml:space="preserve" height="117.1966920841245" width="244.43135999999998" class="icon-icon-0" data-fill-palette-color="accent" id="icon-0"></svg></g></svg></g></svg></g><defs></defs><mask id="b483f66c-f52b-44f1-b1f2-049bd4528877"><g id="SvgjsG4406"><svg viewBox="0 0 395.52 70.4604598074176" height="70.4604598074176" width="395.52"><g><svg viewBox="0 0 657.8673454559705 117.1966920841245" height="70.4604598074176" width="395.52"><g transform="matrix(1,0,0,1,262.3473454559706,20.65296943459134)"><svg viewBox="0 0 395.52 75.89075321494182" height="75.89075321494182" width="395.52"><g id="SvgjsG4405"><svg viewBox="0 0 395.52 75.89075321494182" height="75.89075321494182" width="395.52" id="SvgjsSvg4404"><g><svg viewBox="0 0 395.52 75.89075321494182" height="75.89075321494182" width="395.52"><g transform="matrix(1,0,0,1,0,0)"><svg width="395.52" viewBox="4.65 -37 245.32999999999998 47" height="75.89075321494182" data-palette-color="#3478ff"><g class="wordmark-text-0" data-fill-palette-color="primary" id="SvgjsG4403"><path d="M4.65 0L4.65-34.9 19-34.9Q23.35-34.9 25.83-32.45 28.3-30 28.3-25.9L28.3-25.9Q28.3-23.95 27.75-22.6 27.2-21.25 26.35-20.38 25.5-19.5 24.5-19.07 23.5-18.65 22.65-18.5L22.65-18.5 22.65-18.2Q23.6-18.15 24.78-17.7 25.95-17.25 27-16.28 28.05-15.3 28.78-13.78 29.5-12.25 29.5-10.1L29.5-10.1Q29.5-7.95 28.83-6.1 28.15-4.25 26.95-2.9 25.75-1.55 24.1-0.78 22.45 0 20.5 0L20.5 0 4.65 0ZM8.85-16.2L8.85-3.7 19.2-3.7Q21.9-3.7 23.45-5.08 25-6.45 25-9.1L25-9.1 25-10.8Q25-13.45 23.45-14.83 21.9-16.2 19.2-16.2L19.2-16.2 8.85-16.2ZM8.85-31.2L8.85-19.8 18.5-19.8Q21-19.8 22.4-21.05 23.8-22.3 23.8-24.65L23.8-24.65 23.8-26.35Q23.8-28.7 22.4-29.95 21-31.2 18.5-31.2L18.5-31.2 8.85-31.2ZM46.65 0.6L46.65 0.6Q44.05 0.6 41.9-0.35 39.75-1.3 38.22-3.08 36.7-4.85 35.85-7.33 35-9.8 35-12.9L35-12.9Q35-15.95 35.85-18.45 36.7-20.95 38.22-22.73 39.75-24.5 41.9-25.45 44.05-26.4 46.65-26.4L46.65-26.4Q49.25-26.4 51.37-25.45 53.5-24.5 55.05-22.73 56.6-20.95 57.45-18.45 58.3-15.95 58.3-12.9L58.3-12.9Q58.3-9.8 57.45-7.33 56.6-4.85 55.05-3.08 53.5-1.3 51.37-0.35 49.25 0.6 46.65 0.6ZM46.65-2.95L46.65-2.95Q49.9-2.95 51.95-4.95 54-6.95 54-11.05L54-11.05 54-14.75Q54-18.85 51.95-20.85 49.9-22.85 46.65-22.85L46.65-22.85Q43.4-22.85 41.35-20.85 39.3-18.85 39.3-14.75L39.3-14.75 39.3-11.05Q39.3-6.95 41.35-4.95 43.4-2.95 46.65-2.95ZM74.65 0.6L74.65 0.6Q72.05 0.6 69.9-0.35 67.75-1.3 66.22-3.08 64.7-4.85 63.85-7.33 63-9.8 63-12.9L63-12.9Q63-15.95 63.85-18.45 64.7-20.95 66.22-22.73 67.75-24.5 69.9-25.45 72.05-26.4 74.65-26.4L74.65-26.4Q77.25-26.4 79.37-25.45 81.5-24.5 83.05-22.73 84.59-20.95 85.45-18.45 86.3-15.95 86.3-12.9L86.3-12.9Q86.3-9.8 85.45-7.33 84.59-4.85 83.05-3.08 81.5-1.3 79.37-0.35 77.25 0.6 74.65 0.6ZM74.65-2.95L74.65-2.95Q77.9-2.95 79.95-4.95 82-6.95 82-11.05L82-11.05 82-14.75Q82-18.85 79.95-20.85 77.9-22.85 74.65-22.85L74.65-22.85Q71.4-22.85 69.34-20.85 67.3-18.85 67.3-14.75L67.3-14.75 67.3-11.05Q67.3-6.95 69.34-4.95 71.4-2.95 74.65-2.95ZM92.89 0L92.89-37 96.89-37 96.89-13.55 97.09-13.55 101.04-17.95 108.34-25.8 113.19-25.8 103.64-15.6 114.14 0 109.29 0 100.74-13.15 96.89-9.2 96.89 0 92.89 0ZM129.44 0.6L129.44 0.6Q125.19 0.6 122.19-1.03 119.19-2.65 117.09-5.5L117.09-5.5 120.19-8.1Q122.04-5.65 124.29-4.38 126.54-3.1 129.59-3.1L129.59-3.1Q133.34-3.1 135.31-4.9 137.29-6.7 137.29-9.7L137.29-9.7Q137.29-12.2 135.79-13.55 134.29-14.9 130.84-15.7L130.84-15.7 127.99-16.35Q123.19-17.45 120.67-19.68 118.14-21.9 118.14-25.95L118.14-25.95Q118.14-28.25 118.99-30.05 119.84-31.85 121.37-33.05 122.89-34.25 125.02-34.88 127.14-35.5 129.69-35.5L129.69-35.5Q133.64-35.5 136.47-34.05 139.29-32.6 141.24-29.8L141.24-29.8 138.09-27.5Q136.64-29.5 134.59-30.65 132.54-31.8 129.49-31.8L129.49-31.8Q126.14-31.8 124.22-30.38 122.29-28.95 122.29-26.1L122.29-26.1Q122.29-23.6 123.92-22.33 125.54-21.05 128.84-20.3L128.84-20.3 131.69-19.65Q136.84-18.5 139.14-16.15 141.44-13.8 141.44-9.9L141.44-9.9Q141.44-7.5 140.62-5.55 139.79-3.6 138.24-2.25 136.69-0.9 134.47-0.15 132.24 0.6 129.44 0.6ZM148.29 10L148.29-25.8 152.29-25.8 152.29-21.6 152.49-21.6Q153.49-24.05 155.41-25.23 157.34-26.4 160.04-26.4L160.04-26.4Q162.44-26.4 164.39-25.45 166.34-24.5 167.71-22.75 169.09-21 169.81-18.5 170.54-16 170.54-12.9L170.54-12.9Q170.54-9.8 169.81-7.3 169.09-4.8 167.71-3.05 166.34-1.3 164.39-0.35 162.44 0.6 160.04 0.6L160.04 0.6Q154.79 0.6 152.49-4.2L152.49-4.2 152.29-4.2 152.29 10 148.29 10ZM158.94-3L158.94-3Q162.34-3 164.29-5.13 166.24-7.25 166.24-10.7L166.24-10.7 166.24-15.1Q166.24-18.55 164.29-20.68 162.34-22.8 158.94-22.8L158.94-22.8Q157.59-22.8 156.36-22.43 155.14-22.05 154.24-21.4 153.34-20.75 152.81-19.83 152.29-18.9 152.29-17.85L152.29-17.85 152.29-8.25Q152.29-7 152.81-6.03 153.34-5.05 154.24-4.38 155.14-3.7 156.36-3.35 157.59-3 158.94-3ZM198.29 0L196.04 0Q193.79 0 192.81-1.2 191.84-2.4 191.59-4.2L191.59-4.2 191.34-4.2Q190.49-1.8 188.54-0.6 186.59 0.6 183.89 0.6L183.89 0.6Q179.79 0.6 177.51-1.5 175.24-3.6 175.24-7.2L175.24-7.2Q175.24-10.85 177.91-12.8 180.59-14.75 186.24-14.75L186.24-14.75 191.34-14.75 191.34-17.3Q191.34-20.05 189.84-21.5 188.34-22.95 185.24-22.95L185.24-22.95Q182.89-22.95 181.31-21.9 179.74-20.85 178.69-19.1L178.69-19.1 176.29-21.35Q177.34-23.45 179.64-24.93 181.94-26.4 185.44-26.4L185.44-26.4Q190.14-26.4 192.74-24.1 195.34-21.8 195.34-17.7L195.34-17.7 195.34-3.5 198.29-3.5 198.29 0ZM184.54-2.8L184.54-2.8Q186.04-2.8 187.29-3.15 188.54-3.5 189.44-4.15 190.34-4.8 190.84-5.65 191.34-6.5 191.34-7.5L191.34-7.5 191.34-11.75 186.04-11.75Q182.59-11.75 181.01-10.75 179.44-9.75 179.44-7.85L179.44-7.85 179.44-6.8Q179.44-4.9 180.81-3.85 182.19-2.8 184.54-2.8ZM213.58 0.6L213.58 0.6Q210.88 0.6 208.73-0.35 206.58-1.3 205.11-3.05 203.63-4.8 202.86-7.3 202.08-9.8 202.08-12.9L202.08-12.9Q202.08-16 202.86-18.5 203.63-21 205.11-22.75 206.58-24.5 208.73-25.45 210.88-26.4 213.58-26.4L213.58-26.4Q217.43-26.4 219.76-24.73 222.08-23.05 223.23-20.35L223.23-20.35 219.88-18.65Q219.18-20.65 217.58-21.75 215.98-22.85 213.58-22.85L213.58-22.85Q211.78-22.85 210.43-22.28 209.08-21.7 208.18-20.68 207.28-19.65 206.83-18.23 206.38-16.8 206.38-15.1L206.38-15.1 206.38-10.7Q206.38-7.3 208.21-5.13 210.03-2.95 213.58-2.95L213.58-2.95Q218.43-2.95 220.58-7.45L220.58-7.45 223.48-5.5Q222.23-2.7 219.76-1.05 217.28 0.6 213.58 0.6ZM238.83 0.6L238.83 0.6Q236.18 0.6 234.06-0.35 231.93-1.3 230.41-3.08 228.88-4.85 228.06-7.33 227.23-9.8 227.23-12.9L227.23-12.9Q227.23-15.95 228.06-18.45 228.88-20.95 230.41-22.73 231.93-24.5 234.06-25.45 236.18-26.4 238.83-26.4L238.83-26.4Q241.43-26.4 243.48-25.45 245.53-24.5 246.98-22.83 248.43-21.15 249.21-18.85 249.98-16.55 249.98-13.8L249.98-13.8 249.98-11.9 231.43-11.9 231.43-10.7Q231.43-9.05 231.96-7.63 232.48-6.2 233.46-5.15 234.43-4.1 235.86-3.5 237.28-2.9 239.08-2.9L239.08-2.9Q241.53-2.9 243.36-4.05 245.18-5.2 246.18-7.35L246.18-7.35 249.03-5.3Q247.78-2.65 245.13-1.03 242.48 0.6 238.83 0.6ZM238.83-23.05L238.83-23.05Q237.18-23.05 235.83-22.48 234.48-21.9 233.51-20.85 232.53-19.8 231.98-18.38 231.43-16.95 231.43-15.25L231.43-15.25 231.43-14.9 245.68-14.9 245.68-15.45Q245.68-18.9 243.81-20.98 241.93-23.05 238.83-23.05Z" fill="black"></path></g></svg></g></svg></g></svg></g></svg></g><g><svg viewBox="0 0 244.43135999999998 117.1966920841245" height="117.1966920841245" width="244.43135999999998"><g><svg xmlns="http://www.w3.org/2000/svg" xmlns:xlink="http://www.w3.org/1999/xlink" xmlns:a="http://ns.adobe.com/AdobeSVGViewerExtensions/3.0/" version="1.1" x="0" y="0" viewBox="0 0 97.427 46.713" enable-background="new -1.286 -24.917 100 100" xml:space="preserve" height="117.1966920841245" width="244.43135999999998" class="icon-icon-0" data-fill-palette-color="accent" id="SvgjsSvg4402"><path d="M35.03 35.148C27.298 32.002 23.369 31.661 19.209 31.3 15.108 30.946 10.862 30.571 2.827 27.35 2.23 28.251 1.737 30.001 1.34 32.122 9.601 34.275 13.783 34.11 17.817 33.943 21.898 33.775 26.115 33.602 34.365 35.79 37.157 36.531 39.331 37.26 41.06 37.966 39.524 37.117 37.569 36.181 35.03 35.148" fill="white"></path><path d="M34.048 37.982C25.98 35.841 22.04 36.002 17.866 36.174 13.756 36.344 9.499 36.512 1.127 34.339A86 86 0 0 0 0.466 39.513C8.633 40.482 12.682 39.781 16.588 39.097 20.609 38.394 24.767 37.667 33.235 38.749 36.547 39.173 39.042 39.689 40.967 40.249 39.258 39.53 37.023 38.771 34.048 37.982" fill="white"></path><path d="M16.801 41.31C12.81 42.007 8.676 42.722 0.35 41.74 0.18 43.635 0.063 45.386 0 46.685 8.365 46.626 12.312 45.404 16.133 44.22 20.034 43.012 24.067 41.763 32.602 41.763 35.488 41.763 37.776 41.909 39.627 42.15 37.925 41.72 35.797 41.319 33.08 40.972 24.8 39.912 20.914 40.591 16.801 41.31" fill="white"></path><path d="M79.611 33.969C83.654 34.134 87.843 34.302 96.144 32.134 95.734 29.827 95.24 28.038 94.665 27.351 86.587 30.597 82.331 30.97 78.218 31.326 74.058 31.687 70.128 32.026 62.396 35.175 59.857 36.209 57.9 37.145 56.365 37.996 58.094 37.289 60.269 36.558 63.064 35.818 71.312 33.628 75.531 33.802 79.611 33.969" fill="white"></path><path d="M94.041 25.278L85.287 0C78.951 2.515 75.572 2.807 72.303 3.09 68.961 3.379 65.805 3.652 59.596 6.179 50.985 9.685 50.518 11.875 50.268 13.052 50.147 13.617 50.004 14.249 49.23 14.661V43.386C49.234 43.38 49.242 43.374 49.247 43.366 49.283 43.314 49.315 43.251 49.347 43.182 49.412 43.024 49.461 42.834 49.521 42.557 49.911 40.726 50.563 37.661 61.935 33.034 69.839 29.814 74.046 29.451 78.115 29.098 82.107 28.753 86.234 28.397 94.041 25.278" fill="white"></path><path d="M80.837 39.123C84.747 39.807 88.798 40.506 96.978 39.537A92 92 0 0 0 96.345 34.353C87.947 36.537 83.681 36.37 79.56 36.199 75.386 36.028 71.447 35.867 63.378 38.008 60.403 38.798 58.169 39.557 56.456 40.278 58.382 39.718 60.878 39.202 64.19 38.778 72.656 37.693 76.818 38.42 80.837 39.123" fill="white"></path><path d="M81.294 44.247C85.114 45.43 89.062 46.653 97.427 46.713 97.355 45.203 97.239 43.5 97.091 41.765 88.757 42.75 84.618 42.034 80.626 41.336 76.513 40.617 72.628 39.939 64.347 40.998 61.632 41.346 59.503 41.748 57.802 42.176 59.652 41.938 61.939 41.789 64.825 41.789 73.361 41.789 77.394 43.039 81.294 44.247" fill="white"></path><path d="M47.907 42.533C47.94 42.687 47.968 42.812 47.998 42.927V14.662C47.224 14.25 47.081 13.618 46.961 13.053 46.71 11.876 46.244 9.686 37.632 6.18 31.423 3.653 28.267 3.38 24.926 3.091 21.656 2.808 18.279 2.515 11.945 0.002L3.382 25.25C11.192 28.371 15.32 28.729 19.315 29.074 23.383 29.427 27.589 29.791 35.494 33.008 46.866 37.636 47.518 40.702 47.907 42.533" fill="white"></path></svg></g></svg></g></svg></g><defs><mask></mask></defs></svg><rect width="395.52" height="70.4604598074176" fill="black" stroke="none" visibility="hidden"></rect></g></mask><linearGradient x1="0.054" x2="0.941" y1="0.5" y2="0.5" id="a41c904e-4412-4045-83e3-c3871c627686"><stop stop-color="#0f3054" offset="0"></stop><stop stop-color="#3b8dcb" offset="0.498"></stop><stop stop-color="#0f3054" offset="1"></stop></linearGradient><rect width="395.52" height="70.4604598074176" fill="#ffffff" mask="url(#b483f66c-f52b-44f1-b1f2-049bd4528877)" data-fill-palette-color="accent"></rect></svg><rect width="395.52" height="70.4604598074176" fill="none" stroke="none" visibility="hidden"></rect></g></svg></g></svg>